# xmcd CD database file
#
# Track frame offsets:
#	150
#	12587
#	27647
#	41600
#	52125
#	65895
#	78305
#	89732
#	106920
#	119310
#	134720
#
# Disc length: 2065 seconds
#
# Revision: 0
# Processed by: cddbd v1.5.2PL0 Copyright (c) Steve Scherf et al.
# Submitted via: CDex 1.70beta2
#
DISCID=a6080f0b
DTITLE=Richard Hailey - It's Never Too Late
DYEAR=1995
DGENRE=Country
TTITLE0=I'm Gonna Go Down Swinging
TTITLE1=Honky Tonk Healin'
TTITLE2=Fear of a Broken Heart
TTITLE3=Texas Honky Tonkin'
TTITLE4=You Sure Got this Ol' Redneck Feelin' Blue
TTITLE5=What a Way to Live
TTITLE6=Ace in the Hole
TTITLE7=Livin' on Love
TTITLE8=I Should Have Watched That First Step
TTITLE9=All American Boy
TTITLE10=Workin' Man Blues
EXTD=YEAR: 1995
EXTT0=
EXTT1=
EXTT2=
EXTT3=
EXTT4=
EXTT5=
EXTT6=
EXTT7=
EXTT8=
EXTT9=
EXTT10=
PLAYORDER=
